<?xml version="1.0" encoding="us-ascii" standalone="no"?><svg xmlns="http://www.w3.org/2000/svg" xmlns:xlink="http://www.w3.org/1999/xlink" contentStyleType="text/css" height="346.875px" preserveAspectRatio="none" style="width:466px;height:346px;" version="1.1" viewBox="0 0 466 346" width="466.6667px" zoomAndPan="magnify"><defs><linearGradient id="gzywtqy7j849x0" x1="50%" x2="50%" y1="0%" y2="100%"><stop offset="0%" stop-color="#59B6EC"/><stop offset="100%" stop-color="#2FA4E7"/></linearGradient></defs><g><line style="stroke:#BABDBF;stroke-width:1.0416666666666667;stroke-dasharray:5.0,5.0;" x1="84.375" x2="84.375" y1="51.0091" y2="297.6888"/><line style="stroke:#BABDBF;stroke-width:1.0416666666666667;stroke-dasharray:5.0,5.0;" x1="261.4583" x2="261.4583" y1="51.0091" y2="297.6888"/><line style="stroke:#BABDBF;stroke-width:1.0416666666666667;stroke-dasharray:5.0,5.0;" x1="420.8333" x2="420.8333" y1="51.0091" y2="297.6888"/><rect fill="url(#gzywtqy7j849x0)" height="39.5508" rx="4.1667" ry="4.1667" style="stroke:#2FA4E7;stroke-width:1.0416666666666667;" width="54.1667" x="57.2917" y="10.4167"/><text fill="#FFFFFF" font-family="Verdana" font-size="12.5" lengthAdjust="spacing" textLength="29.1667" x="69.7917" y="34.5194">user</text><rect fill="url(#gzywtqy7j849x0)" height="39.5508" rx="4.1667" ry="4.1667" style="stroke:#2FA4E7;stroke-width:1.0416666666666667;" width="54.1667" x="57.2917" y="296.6471"/><text fill="#FFFFFF" font-family="Verdana" font-size="12.5" lengthAdjust="spacing" textLength="29.1667" x="69.7917" y="320.7499">user</text><rect fill="url(#gzywtqy7j849x0)" height="39.5508" rx="4.1667" ry="4.1667" style="stroke:#2FA4E7;stroke-width:1.0416666666666667;" width="62.5" x="230.2083" y="10.4167"/><text fill="#FFFFFF" font-family="Verdana" font-size="12.5" lengthAdjust="spacing" textLength="37.5" x="242.7083" y="34.5194">wallet</text><rect fill="url(#gzywtqy7j849x0)" height="39.5508" rx="4.1667" ry="4.1667" style="stroke:#2FA4E7;stroke-width:1.0416666666666667;" width="62.5" x="230.2083" y="296.6471"/><text fill="#FFFFFF" font-family="Verdana" font-size="12.5" lengthAdjust="spacing" textLength="37.5" x="242.7083" y="320.7499">wallet</text><rect fill="url(#gzywtqy7j849x0)" height="39.5508" rx="4.1667" ry="4.1667" style="stroke:#2FA4E7;stroke-width:1.0416666666666667;" width="68.75" x="386.4583" y="10.4167"/><text fill="#FFFFFF" font-family="Verdana" font-size="12.5" lengthAdjust="spacing" textLength="43.75" x="398.9583" y="34.5194">verifier</text><rect fill="url(#gzywtqy7j849x0)" height="39.5508" rx="4.1667" ry="4.1667" style="stroke:#2FA4E7;stroke-width:1.0416666666666667;" width="68.75" x="386.4583" y="296.6471"/><text fill="#FFFFFF" font-family="Verdana" font-size="12.5" lengthAdjust="spacing" textLength="43.75" x="398.9583" y="320.7499">verifier</text><polygon fill="#2FA4E7" points="272.9167,103.0273,262.5,107.194,272.9167,111.3607,268.75,107.194" style="stroke:#2FA4E7;stroke-width:1.0416666666666667;"/><line style="stroke:#2FA4E7;stroke-width:3.125;" x1="266.6667" x2="419.7917" y1="107.194" y2="107.194"/><text fill="#343A40" font-family="Verdana" font-size="12.5" lengthAdjust="spacing" textLength="112.5" x="284.375" y="82.4036">auth request inc.</text><text fill="#343A40" font-family="Verdana" font-size="12.5" lengthAdjust="spacing" textLength="86.4583" x="288.5417" y="96.9543">request2sign</text><polygon fill="#2FA4E7" points="95.8333,142.5781,85.4167,146.7448,95.8333,150.9115,91.6667,146.7448" style="stroke:#2FA4E7;stroke-width:1.0416666666666667;"/><line style="stroke:#2FA4E7;stroke-width:3.125;" x1="89.5833" x2="260.4167" y1="146.7448" y2="146.7448"/><text fill="#343A40" font-family="Verdana" font-size="12.5" lengthAdjust="spacing" textLength="141.6667" x="107.2917" y="136.5051">present request2sign</text><polygon fill="#2FA4E7" points="248.9583,182.1289,259.375,186.2956,248.9583,190.4622,253.125,186.2956" style="stroke:#2FA4E7;stroke-width:1.0416666666666667;"/><line style="stroke:#2FA4E7;stroke-width:3.125;" x1="84.375" x2="255.2083" y1="186.2956" y2="186.2956"/><text fill="#343A40" font-family="Verdana" font-size="12.5" lengthAdjust="spacing" textLength="53.125" x="96.875" y="176.0559">consent</text><line style="stroke:#2FA4E7;stroke-width:3.125;" x1="261.4583" x2="305.2083" y1="225.8464" y2="225.8464"/><line style="stroke:#2FA4E7;stroke-width:3.125;" x1="305.2083" x2="305.2083" y1="225.8464" y2="239.388"/><line style="stroke:#2FA4E7;stroke-width:3.125;" x1="262.5" x2="305.2083" y1="239.388" y2="239.388"/><polygon fill="#2FA4E7" points="272.9167,235.2214,262.5,239.388,272.9167,243.5547,268.75,239.388" style="stroke:#2FA4E7;stroke-width:1.0416666666666667;"/><text fill="#343A40" font-family="Verdana" font-size="12.5" lengthAdjust="spacing" textLength="27.0833" x="273.9583" y="215.6067">sign</text><polygon fill="#2FA4E7" points="408.3333,274.7721,418.75,278.9388,408.3333,283.1055,412.5,278.9388" style="stroke:#2FA4E7;stroke-width:1.0416666666666667;"/><line style="stroke:#2FA4E7;stroke-width:3.125;" x1="261.4583" x2="414.5833" y1="278.9388" y2="278.9388"/><text fill="#343A40" font-family="Verdana" font-size="12.5" lengthAdjust="spacing" textLength="63.5417" x="273.9583" y="268.6991">auth resp</text><!--SRC=[LOnB3i8m34JtEOKvG5cmxA8dOMD5XbeA9lYJN9-cg4XTpfkPT_6LNWIPD0gXf5HHdJDN58SmKa23ED6EfP0Fta-yaVA3Vu-MKfkMFWE6hw3q2J87bdozon5lnaz9VLfYXgfaj3bELUo6_9PHZU6MZa_xgwr-0G00]--></g><text x="98%" y="98%" text-anchor="end" font-size="5vh" fill="#cccccc" opacity="0.5" transform="translate(-10,-10)" font-family="Roboto, Arial, Helvetica, sans-serif">pladitor.com</text></svg>